<svg viewBox="-0.9 -0.9 180 180" xmlns="http://www.w3.org/2000/svg" id="Dog-Digging--Streamline-Ux" height="180" width="180">
  <desc>
    Dog Digging Streamline Illustration: https://streamlinehq.com
  </desc>
  <path d="M94.761414 98.04207600000001a51.530094000000005 51.530094000000005 0 0 1 8.019 -5.05197" fill="none" stroke="currentColor" stroke-linecap="round" stroke-linejoin="round" stroke-width="1.8"></path>
  <path d="M111.636954 96.169194A50.227452 50.227452 0 0 1 121.92444 94.2678" fill="none" stroke="currentColor" stroke-linecap="round" stroke-linejoin="round" stroke-width="1.8"></path>
  <path d="M95.25681 103.98861a50.2524 50.2524 0 0 1 8.582112 -4.896936" fill="none" stroke="currentColor" stroke-linecap="round" stroke-linejoin="round" stroke-width="1.8"></path>
  <path d="M90.457884 42.946200000000005a25.614468000000002 25.614468000000002 0 0 1 2.740716 -9.038304c5.880599999999999 -11.784366 20.070666 -15.424992000000001 24.629022 -23.306778a0.85536 0.85536 0 0 1 1.593108 0.372438c1.582416 24.3243 -18.13185 26.71218 -19.411326000000003 31.977990000000002" fill="none" stroke="currentColor" stroke-linecap="round" stroke-linejoin="round" stroke-width="1.8"></path>
  <path d="m64.396134 102.985344 0.841104 9.483804000000001 5.092956 0.005346 2.072466 -9.095328" fill="none" stroke="currentColor" stroke-linecap="round" stroke-linejoin="round" stroke-width="1.8"></path>
  <path d="M40.561884 82.22148a24.570216000000002 24.570216000000002 0 0 0 -6.474006 13.094136 11.160666 11.160666 0 0 0 -6.144336 11.782584 1.145826 1.145826 0 0 0 1.901394 0.753786 23.60259 23.60259 0 0 1 4.85595 -3.335904h0l2.591028 7.94772h18.682488l0.29403 -4.529844a5.820012 5.820012 0 0 1 2.61954 -2.926044" fill="none" stroke="currentColor" stroke-linecap="round" stroke-linejoin="round" stroke-width="1.8"></path>
  <path d="M77.239008 96.05871a84.24405 84.24405 0 0 0 18.919494 -15.54795 50.27913 50.27913 0 0 0 6.570234 12.220956c0.791208 3.564 2.505492 9.430344 -0.9640620000000001 12.971178a7.530732 7.530732 0 0 1 -2.56608 1.71072A4.467474 4.467474 0 0 0 96.4062 111.5532v0.9123840000000001h13.092354l2.885058 -8.753184a4.455 4.455 0 0 0 0.032076 -2.715768c-3.941784 -12.798324000000001 8.359361999999999 -22.29282 7.557461999999999 -35.258652000000005a24.486462 24.486462 0 0 0 -8.501922 -17.080470000000002l-0.340362 -0.288684a24.481116 24.481116 0 0 0 -34.095006 2.17404C64.727586 67.87638000000001 53.408322 72.8838 44.794134 78.680646" fill="none" stroke="currentColor" stroke-linecap="round" stroke-linejoin="round" stroke-width="1.8"></path>
  <path d="M153.200322 112.47449399999999a5.369166 5.369166 0 0 0 -2.4947999999999997 -4.558356 2.943864 2.943864 0 0 0 0.02673 -0.399168 2.874366 2.874366 0 0 0 -3.5978580000000004 -2.77992 2.874366 2.874366 0 0 0 -2.742498 -2.0172239999999997h-0.06593399999999999a2.901096 2.901096 0 0 0 0.06593399999999999 -0.61479 2.8725840000000002 2.8725840000000002 0 0 0 -2.870802 -2.8725840000000002 2.906442 2.906442 0 0 0 -0.547074 0.05346 2.870802 2.870802 0 0 0 -5.688144 0.56133 2.8725840000000002 2.8725840000000002 0 0 0 -2.8832760000000004 2.8725840000000002l0 0.155034a2.8369440000000004 2.8369440000000004 0 0 0 -0.9248580000000001 -0.155034 2.8725840000000002 2.8725840000000002 0 0 0 -2.596374 1.6430040000000001 2.8725840000000002 2.8725840000000002 0 0 0 -5.076918 1.035342 2.8725840000000002 2.8725840000000002 0 0 0 -4.2322500000000005 3.220074 5.356692 5.356692 0 0 0 -1.83546 3.8562480000000003Z" fill="none" stroke="currentColor" stroke-linecap="round" stroke-linejoin="round" stroke-width="1.8"></path>
  <path d="M95.066136 66.081906a23.445774 23.445774 0 0 0 1.092366 14.434199999999999" fill="none" stroke="currentColor" stroke-linecap="round" stroke-linejoin="round" stroke-width="1.8"></path>
  <path d="M34.700886 104.52142800000001a26.770986 26.770986 0 0 1 5.267592 -2.0457359999999998" fill="none" stroke="currentColor" stroke-linecap="round" stroke-linejoin="round" stroke-width="1.8"></path>
  <path d="M86.97051 98.582022a1.93347 1.93347 0 1 0 3.86694 0 1.93347 1.93347 0 1 0 -3.86694 0Z" fill="none" stroke="currentColor" stroke-linecap="round" stroke-linejoin="round" stroke-width="1.8"></path>
  <path d="M127.821078 92.327202a3.351942 3.351942 0 1 0 6.703884 0 3.351942 3.351942 0 1 0 -6.703884 0Z" fill="none" stroke="currentColor" stroke-linecap="round" stroke-linejoin="round" stroke-width="1.8"></path>
  <path d="M122.644368 83.40651a2.131272 2.131272 0 1 0 4.262544 0 2.131272 2.131272 0 1 0 -4.262544 0Z" fill="none" stroke="currentColor" stroke-linecap="round" stroke-linejoin="round" stroke-width="1.8"></path>
  <path d="M86.341464 30.848202a15.738624000000002 15.738624000000002 0 0 1 3.1773059999999997 -6.84288 15.954246 15.954246 0 0 1 5.151762 -4.29462" fill="none" stroke="currentColor" stroke-linecap="round" stroke-linejoin="round" stroke-width="1.8"></path>
  <path d="M79.270488 35.105399999999996a24.042744000000003 24.042744000000003 0 0 1 5.431536 -14.920686 25.154712 25.154712 0 0 1 9.474894 -7.455888000000001" fill="none" stroke="currentColor" stroke-linecap="round" stroke-linejoin="round" stroke-width="1.8"></path>
  <path d="M125.27459999999999 26.567838000000002a12.3849 12.3849 0 0 1 -1.723194 5.688144 12.53637 12.53637 0 0 1 -3.544398 3.9204000000000003" fill="none" stroke="currentColor" stroke-linecap="round" stroke-linejoin="round" stroke-width="1.8"></path>
  <path d="M130.321224 22.4532a18.937314 18.937314 0 0 1 -2.5874639999999998 12.238776000000001A19.817622 19.817622 0 0 1 121.176 41.559804" fill="none" stroke="currentColor" stroke-linecap="round" stroke-linejoin="round" stroke-width="1.8"></path>
  <path d="m72.595116 81.84013200000001 0.593406 5.641812a14.562504 14.562504 0 0 0 3.2076000000000002 7.6875480000000005l7.179678 8.804862 3.5550900000000003 0.044550000000000006a5.116122 5.116122 0 0 1 4.989599999999999 4.381938l-8.150868 1.1796840000000002a4.86486 4.86486 0 0 1 -3.7119060000000004 -0.9943560000000001l-9.031176 -5.983956a1.929906 1.929906 0 0 0 -1.655478 -0.502524l-6.0588 1.035342" fill="none" stroke="currentColor" stroke-linecap="round" stroke-linejoin="round" stroke-width="1.8"></path>
  <path d="M63.273474 101.64884400000001a1.937034 1.937034 0 0 1 -0.648648 2.6997299999999997l-1.475496 0.87318a1.931688 1.931688 0 0 1 -2.630232 -0.6468659999999999 121.04056800000001 121.04056800000001 0 0 0 -17.750502 -22.109274 1.938816 1.938816 0 0 1 0.15147000000000002 -2.881494l1.297296 -1.04247a1.931688 1.931688 0 0 1 2.5678620000000003 0.130086 131.22648 131.22648 0 0 1 18.48825 22.977108Z" fill="none" stroke="currentColor" stroke-linecap="round" stroke-linejoin="round" stroke-width="1.8"></path>
  <path d="M86.904576 137.671974a1.0549439999999999 1.0549439999999999 0 0 1 -0.9515880000000001 -1.561032 6.124734 6.124734 0 0 0 -1.3329360000000001 -7.293726 5.98752 5.98752 0 0 0 -5.4725220000000006 -1.4256000000000002 6.13008 6.13008 0 0 0 -4.536972 7.537860000000001 2.288088 2.288088 0 0 1 -0.930204 2.598156l-17.502803999999998 10.766843999999999a6.12117 6.12117 0 0 0 -9.743976 -0.9319860000000001 5.992866 5.992866 0 0 0 -1.4362920000000001 5.4725220000000006 6.1265160000000005 6.1265160000000005 0 0 0 9.143442 3.850902 6.12117 6.12117 0 0 0 -0.9319860000000001 9.743976 5.991084 5.991084 0 0 0 5.47074 1.4362920000000001 6.128298 6.128298 0 0 0 3.852684 -9.143442h0l17.502803999999998 -10.766843999999999a2.2667040000000003 2.2667040000000003 0 0 1 2.724678 0.35640000000000005 6.128298 6.128298 0 0 0 8.635572 -0.413424 5.989302 5.989302 0 0 0 1.4362920000000001 -5.47074 6.135426 6.135426 0 0 0 -5.926932 -4.756158Z" fill="none" stroke="currentColor" stroke-linecap="round" stroke-linejoin="round" stroke-width="1.8"></path>
  <path d="m164.835 112.437072 4.455 0" fill="none" stroke="currentColor" stroke-linecap="round" stroke-linejoin="round" stroke-width="1.8"></path>
  <path d="m8.91 112.437072 4.455 0" fill="none" stroke="currentColor" stroke-linecap="round" stroke-linejoin="round" stroke-width="1.8"></path>
  <path d="m161.27100000000002 112.47449399999999 -144.342 0" fill="none" stroke="currentColor" stroke-linecap="round" stroke-linejoin="round" stroke-width="1.8"></path>
</svg>